<svg xmlns="http://www.w3.org/2000/svg" viewBox="0 0 64 64" role="img" aria-label="Miaoucratie symbol">
  <title>Miaoucratie</title>
  <desc>Minimal luxury cat monogram emblem for a premium cat-sitting brand.</desc>
  <path fill="#C46A4A" fill-rule="evenodd" d="M32 4C16.536 4 4 16.536 4 32s12.536 28 28 28 28-12.536 28-28S47.464 4 32 4zm0 3.5c13.807 0 24.5 10.693 24.5 24.5S45.807 56.5 32 56.5 7.5 45.807 7.5 32 18.193 7.5 32 7.5zM22 22.5l4.25-7.25L32 21.6l5.75-6.35L42 22.5c3.5 2.7 5.75 6.45 5.75 10.7 0 8.8-7.15 15.95-15.95 15.95S15.85 42 15.85 33.2c0-4.25 2.65-8 6.15-10.7zm2.5 11.8c0-4.25 2.25-7.15 5.25-9.35 1.65 1.45 1.95 3.05 2.25 4.65.35 1.8.65 3.55 2 4.55 1.35-1 1.65-2.75 2-4.55.3-1.6.6-3.2 2.25-4.65 3 2.2 5.25 5.1 5.25 9.35 0 5.55-4.5 10.05-10.05 10.05S24.5 39.85 24.5 34.3zm6.55 1.45c0-1.8.7-3.1 1.75-4.1 1.05 1 1.75 2.3 1.75 4.1 0 1.65-.7 3.05-1.75 4.1-1.05-1.05-1.75-2.45-1.75-4.1z"/>
</svg>
